# xmcd
#
# Track frame offsets: 
#        150
#        18585
#        39095
#
# Disc length: 814 seconds
#
# Revision: 0
# Processed by: cddbd v1.5.2PL0 Copyright (c) Steve Scherf et al.
# Submitted via: ExactAudioCopy v1.0b1
#
DISCID=17032c03
DTITLE=Sarah McLachlan - Adia
DYEAR=1998
DGENRE=Soul
TTITLE0=Adia
TTITLE1=Angel
TTITLE2=I Will Remember You
EXTD=
EXTT0=
EXTT1=
EXTT2=
PLAYORDER=
